<svg width="41" height="86" viewBox="0 0 41 86" fill="none" xmlns="http://www.w3.org/2000/svg">
<path d="M35.9258 6.54212C33.8122 8.04224 31.8689 9.78604 29.915 11.4864C29.1225 12.1784 28.3474 12.8846 27.5549 13.5766C26.7624 14.2687 25.7361 15.1333 24.8564 15.9388L21.9364 18.5995C19.609 20.8382 17.5276 23.3194 15.7279 26.0008C14.7583 27.3628 13.8893 28.7937 13.1278 30.2822C12.3209 31.8527 11.6688 33.5096 10.9993 35.1523C9.73437 38.4151 8.81912 41.8029 8.26907 45.2588C7.75776 48.4955 7.50685 51.768 7.51865 55.0448C7.5471 58.3928 7.91469 61.7293 8.61576 65.0033C9.30003 68.2073 10.2329 71.3531 11.406 74.4122C11.9949 75.9956 12.6708 77.5452 13.4305 79.0541C14.1513 80.4489 14.9842 81.7829 15.9209 83.0428C16.2266 83.5143 16.6996 83.8522 17.2447 83.9886C17.6553 84.0784 18.0832 84.0452 18.4751 83.8933C18.867 83.7414 19.2055 83.4775 19.4483 83.1344C19.6911 82.7914 19.8275 82.3844 19.8405 81.9643C19.8535 81.5442 19.7426 81.1296 19.5215 80.7722C18.4302 79.2761 17.4726 77.6867 16.66 76.0227C15.7453 73.9206 14.9382 71.7734 14.2416 69.5894C13.511 67.3429 12.9237 65.0524 12.4832 62.7315C12.1055 60.5436 11.8732 58.3331 11.7879 56.1144C11.7137 53.8548 11.7809 51.5927 11.9891 49.3415C12.3618 45.2224 13.2429 41.1652 14.6124 37.2626C15.2154 35.6869 15.8596 34.1103 16.585 32.5828C17.4014 30.9025 18.359 29.2946 19.4475 27.7764C21.0624 25.4563 22.9221 23.3166 24.9946 21.3942C25.9624 20.5163 26.9401 19.6406 27.9154 18.7747C29.5017 17.3397 31.1721 15.9853 32.8178 14.6047C34.4635 13.2242 36.4556 11.7171 38.3895 10.4223C38.8995 10.0948 39.2603 9.57997 39.3942 8.98884C39.5281 8.39771 39.4244 7.77762 39.1053 7.26232C38.9381 7.00263 38.7212 6.77859 38.4671 6.60312C38.2129 6.42765 37.9266 6.30422 37.6245 6.23995C37.3393 6.16399 37.0409 6.15211 36.7506 6.20511C36.4603 6.25812 36.1853 6.37471 35.9453 6.54654L35.9258 6.54212ZM14.6742 36.9895L14.6389 37.1456C14.6459 37.0926 14.6577 37.0404 14.6742 36.9895ZM14.5881 37.3699L14.5527 37.5259L14.5881 37.3699ZM12.5067 62.8086L12.5565 63.0865L12.5067 62.8086Z" fill="#F24747"/>
<path d="M35.5972 5.37099C34.601 5.74004 33.564 6.01779 32.5528 6.36292C31.1168 6.8784 29.682 7.4181 28.2487 7.98205C25.4978 9.08149 22.8158 10.3298 20.0854 11.4749C19.5557 11.6415 19.1082 12.0013 18.8317 12.4829C18.6983 12.7298 18.616 13.001 18.5897 13.2805C18.5634 13.5599 18.5936 13.8417 18.6786 14.1092C18.8397 14.6418 19.201 15.0911 19.6866 15.3629C19.9326 15.5001 20.2049 15.5839 20.4855 15.6086C20.7662 15.6333 21.0489 15.5984 21.3151 15.5062C23.9663 14.3944 26.581 13.1718 29.2667 12.0884C30.7019 11.501 32.1305 10.9428 33.5764 10.3988L34.0696 10.2132C34.0233 10.418 33.9769 10.6228 33.9305 10.8276C33.6455 12.0857 33.3583 13.3536 33.0711 14.6215C32.4724 17.2645 31.8715 19.9173 31.0019 22.4887C30.9082 22.7217 30.7956 22.9465 30.6651 23.161C30.422 23.63 30.3228 24.1604 30.3802 24.6856C30.4376 25.2108 30.649 25.7073 30.9878 26.1128C31.3265 26.5182 31.7776 26.8144 32.2842 26.9643C32.7908 27.1142 33.3304 27.1109 33.8352 26.955C34.2768 26.8077 34.6736 26.5504 34.9881 26.2072C35.3026 25.8641 35.5246 25.4465 35.633 24.9937C36.0357 23.5777 36.3529 22.1321 36.7069 20.705C37.061 19.278 37.4282 17.7924 37.6945 16.3455C37.9607 14.8985 38.3572 13.4196 38.595 12.0072C38.7208 11.2257 38.8662 10.4486 38.9724 9.66269C39.0718 9.22381 39.0955 8.75748 39.1678 8.30222C39.2782 7.68187 39.2582 7.04532 39.1092 6.43309C38.9207 5.85025 38.5122 5.36408 37.9705 5.07807C37.7973 4.97799 37.6099 4.90442 37.4149 4.85991C37.0798 4.79151 36.7334 4.80112 36.4026 4.88797C36.0718 4.97483 35.7654 5.13661 35.5071 5.36082L35.5972 5.37099Z" fill="#F24747"/>
</svg>
