<svg width="226" height="148" viewBox="0 0 226 148" fill="none" xmlns="http://www.w3.org/2000/svg">
<path d="M216.691 90.687C214.045 89.0279 211.028 88.0539 207.911 87.8532C204.795 87.6524 201.677 88.2311 198.841 89.537C196.731 90.477 194.491 91.537 192.171 92.707C191.136 93.2165 189.95 93.3236 188.841 93.0076C187.733 92.6917 186.781 91.9751 186.171 90.997C183.121 86.1304 179.648 81.5425 175.791 77.287C175.065 76.472 174.663 75.4186 174.663 74.327C174.663 73.2355 175.065 72.1821 175.791 71.367C177.88 68.9178 178.953 65.7622 178.791 62.547L168.081 5.87704C168.013 4.77874 167.598 3.73048 166.894 2.88418C166.191 2.03788 165.237 1.43752 164.169 1.17012C163.102 0.902715 161.977 0.982161 160.958 1.39694C159.939 1.81172 159.078 2.54029 158.501 3.47704L134.571 49.127C134.491 49.257 134.401 49.397 134.331 49.527C134.038 50.0371 133.586 50.4367 133.044 50.6644C132.502 50.8921 131.9 50.9352 131.331 50.787C118.834 47.8766 105.823 47.9931 93.3806 51.127C92.7983 51.265 92.1865 51.2041 91.6429 50.954C91.0992 50.7039 90.6548 50.279 90.3806 49.747C90.2606 49.537 90.1406 49.327 90.0106 49.127L66.1506 3.47704C65.575 2.536 64.714 1.8033 63.693 1.38564C62.672 0.967973 61.5443 0.887162 60.4742 1.15497C59.4041 1.42278 58.4474 2.02523 57.7435 2.87457C57.0396 3.72391 56.6252 4.7758 56.5606 5.87704L45.8506 62.547C45.771 64.2921 46.0543 66.0348 46.6826 67.6648C47.3108 69.2948 48.2704 70.7768 49.5006 72.017C50.2938 72.7994 50.7616 73.8529 50.8098 74.9659C50.858 76.079 50.4832 77.169 49.7606 78.017C45.681 82.6176 42.0449 87.593 38.9006 92.877C38.3031 93.8881 37.3465 94.6368 36.2216 94.9741C35.0966 95.3114 33.8859 95.2125 32.8306 94.697C30.8306 93.697 28.9706 92.837 27.1606 92.027C24.3353 90.7434 21.2355 90.1811 18.1394 90.3905C15.0432 90.5999 12.0474 91.5746 9.42064 93.227C7.36661 94.5504 5.59723 96.2703 4.2161 98.286C2.83496 100.302 1.86983 102.573 1.37721 104.966C0.884589 107.359 0.874373 109.827 1.34716 112.224C1.81995 114.621 2.76624 116.9 4.13064 118.927L7.03064 123.217C8.4091 125.274 10.1887 127.031 12.2628 128.383C14.3368 129.736 16.6626 130.655 19.1006 131.087C20.9906 131.417 23.0506 131.837 25.2306 132.327C24.8706 135.017 24.6106 137.757 24.4506 140.517C24.4058 141.324 24.5259 142.131 24.8036 142.889C25.0813 143.648 25.5108 144.342 26.0659 144.929C26.6209 145.515 27.2898 145.983 28.0317 146.303C28.7736 146.622 29.5729 146.787 30.3806 146.787H195.831C196.639 146.788 197.44 146.624 198.183 146.305C198.926 145.987 199.596 145.519 200.152 144.932C200.708 144.345 201.139 143.651 201.417 142.892C201.695 142.132 201.816 141.324 201.771 140.517C201.561 136.897 201.171 133.337 200.621 129.837C202.901 129.327 205.071 128.837 207.031 128.537C209.464 128.103 211.785 127.183 213.855 125.833C215.925 124.482 217.703 122.729 219.081 120.677L221.971 116.387C223.335 114.361 224.282 112.082 224.756 109.685C225.229 107.289 225.22 104.821 224.728 102.428C224.237 100.035 223.273 97.7637 221.892 95.7477C220.512 93.7317 218.744 92.0112 216.691 90.687Z" fill="white" stroke="white" stroke-linecap="round" stroke-linejoin="round"/>
<path d="M184.341 140.537C184.341 113.787 172.341 90.1469 154.021 75.7369L156.091 63.3169L160.301 64.7669C161.518 65.1887 162.819 65.3066 164.092 65.1101C165.366 64.9137 166.571 64.409 167.605 63.6399C168.638 62.8708 169.467 61.8608 170.021 60.6977C170.575 59.5346 170.835 58.2538 170.781 56.9669L164.161 18.8469C164.126 18.1635 163.873 17.5093 163.439 16.9802C163.005 16.4511 162.413 16.0751 161.75 15.9073C161.086 15.7395 160.386 15.7887 159.753 16.0478C159.12 16.3069 158.586 16.7622 158.231 17.3469L143.501 48.6669C142.862 49.6675 142.457 50.7993 142.316 51.978C142.174 53.1567 142.301 54.3521 142.685 55.4754C143.069 56.5986 143.702 57.6207 144.536 58.4659C145.369 59.311 146.383 59.9573 147.501 60.3569L149.781 61.1469L144.831 69.6169C135.003 64.0446 123.908 61.0906 112.61 61.038C101.312 60.9855 90.1902 63.8362 80.3107 69.3169L75.6507 61.3169L77.9307 60.5269C79.0559 60.1383 80.0787 59.5001 80.9223 58.6602C81.766 57.8202 82.4086 56.8002 82.802 55.6766C83.1955 54.553 83.3296 53.355 83.1943 52.1722C83.0589 50.9894 82.6577 49.8526 82.0207 48.8469L67.2807 17.5469C66.9257 16.9627 66.3929 16.5076 65.7605 16.2482C65.1281 15.9888 64.4292 15.9387 63.7662 16.1052C63.1033 16.2718 62.5111 16.6463 62.0764 17.1739C61.6417 17.7014 61.3874 18.3543 61.3507 19.0369L54.7307 57.1669C54.6759 58.4538 54.9367 59.7346 55.4903 60.8977C56.0439 62.0608 56.8735 63.0708 57.9068 63.8399C58.9401 64.609 60.1458 65.1137 61.4188 65.3101C62.6918 65.5066 63.9936 65.3887 65.2107 64.9669L69.4207 63.4769L71.4207 75.1569C52.6807 89.5069 40.4207 113.417 40.4207 140.507" fill="#BFBFBF"/>
<path d="M184.341 140.537C184.341 113.787 172.341 90.1469 154.021 75.7369L156.091 63.3169L160.301 64.7669C161.518 65.1887 162.819 65.3066 164.092 65.1101C165.366 64.9137 166.571 64.409 167.605 63.6399C168.638 62.8708 169.467 61.8608 170.021 60.6977C170.575 59.5346 170.835 58.2538 170.781 56.9669L164.161 18.8469C164.126 18.1635 163.873 17.5093 163.439 16.9802C163.005 16.4511 162.413 16.0751 161.75 15.9073C161.086 15.7395 160.386 15.7887 159.753 16.0478C159.12 16.3069 158.586 16.7622 158.231 17.3469L143.501 48.6669C142.862 49.6675 142.457 50.7993 142.316 51.978C142.174 53.1567 142.301 54.3521 142.685 55.4754C143.069 56.5986 143.702 57.6207 144.536 58.4659C145.369 59.311 146.383 59.9573 147.501 60.3569L149.781 61.1469L144.831 69.6169C135.003 64.0446 123.908 61.0906 112.61 61.038C101.312 60.9855 90.1902 63.8362 80.3107 69.3169L75.6507 61.3169L77.9307 60.5269C79.0559 60.1383 80.0787 59.5001 80.9223 58.6602C81.766 57.8202 82.4086 56.8002 82.802 55.6766C83.1955 54.553 83.3296 53.355 83.1943 52.1722C83.0589 50.9894 82.6577 49.8526 82.0207 48.8469L67.2807 17.5469C66.9257 16.9627 66.3929 16.5076 65.7605 16.2482C65.1281 15.9888 64.4292 15.9387 63.7662 16.1052C63.1033 16.2718 62.5111 16.6463 62.0764 17.1739C61.6417 17.7014 61.3874 18.3543 61.3507 19.0369L54.7307 57.1669C54.6759 58.4538 54.9367 59.7346 55.4903 60.8977C56.0439 62.0608 56.8735 63.0708 57.9068 63.8399C58.9401 64.609 60.1458 65.1137 61.4188 65.3101C62.6918 65.5066 63.9936 65.3887 65.2107 64.9669L69.4207 63.4769L71.4207 75.1569C52.6807 89.5069 40.4207 113.417 40.4207 140.507" stroke="#8C9590" stroke-width="3" stroke-linecap="round" stroke-linejoin="round"/>
<path d="M75.3406 111.037C80.3111 111.037 84.3406 107.008 84.3406 102.037C84.3406 97.0665 80.3111 93.0371 75.3406 93.0371C70.37 93.0371 66.3406 97.0665 66.3406 102.037C66.3406 107.008 70.37 111.037 75.3406 111.037Z" fill="white" stroke="#8C9590" stroke-width="3" stroke-linecap="round" stroke-linejoin="round"/>
<path d="M147.341 109.037C152.311 109.037 156.341 105.008 156.341 100.037C156.341 95.0665 152.311 91.0371 147.341 91.0371C142.37 91.0371 138.341 95.0665 138.341 100.037C138.341 105.008 142.37 109.037 147.341 109.037Z" fill="white" stroke="#8C9590" stroke-width="3" stroke-linecap="round" stroke-linejoin="round"/>
<path d="M109.281 102.037H116.741C117.054 102.036 117.36 102.128 117.621 102.302C117.882 102.475 118.085 102.722 118.206 103.012C118.326 103.301 118.357 103.62 118.295 103.927C118.234 104.234 118.083 104.516 117.861 104.737L116.381 106.217C115.603 106.994 114.567 107.457 113.47 107.52C112.373 107.583 111.291 107.24 110.431 106.557L108.301 104.857C108.043 104.654 107.855 104.375 107.763 104.06C107.671 103.745 107.679 103.409 107.787 103.098C107.895 102.788 108.097 102.519 108.364 102.329C108.632 102.139 108.952 102.037 109.281 102.037Z" fill="#8C9590" stroke="#8C9590" stroke-width="3" stroke-linecap="round" stroke-linejoin="round"/>
<path d="M77.3406 105.037C78.4451 105.037 79.3406 104.142 79.3406 103.037C79.3406 101.933 78.4451 101.037 77.3406 101.037C76.236 101.037 75.3406 101.933 75.3406 103.037C75.3406 104.142 76.236 105.037 77.3406 105.037Z" fill="#8C9590" stroke="#8C9590" stroke-width="3" stroke-linecap="round" stroke-linejoin="round"/>
<path d="M146.341 103.037C147.445 103.037 148.341 102.142 148.341 101.037C148.341 99.9325 147.445 99.0371 146.341 99.0371C145.236 99.0371 144.341 99.9325 144.341 101.037C144.341 102.142 145.236 103.037 146.341 103.037Z" fill="#8C9590" stroke="#8C9590" stroke-width="3" stroke-linecap="round" stroke-linejoin="round"/>
<path opacity="0.94" d="M172.341 123.037C179.341 119.037 206.881 107.037 216.611 107.037" stroke="#8C9590" stroke-width="3" stroke-linecap="round" stroke-linejoin="round"/>
<path d="M170.331 116.157C176.581 111.807 196.521 99.5368 204.331 97.9268" stroke="#8C9590" stroke-width="3" stroke-linecap="round" stroke-linejoin="round"/>
<path d="M174.841 129.537C174.841 129.537 199.841 121.537 206.841 121.537" stroke="#8C9590" stroke-width="3" stroke-linecap="round" stroke-linejoin="round"/>
<path opacity="0.94" d="M53.2307 125.327C46.2307 121.327 18.7007 109.327 8.9707 109.327" stroke="#8C9590" stroke-width="3" stroke-linecap="round" stroke-linejoin="round"/>
<path d="M55.2507 118.477C48.9907 114.127 29.0607 101.857 21.2507 100.247" stroke="#8C9590" stroke-width="3" stroke-linecap="round" stroke-linejoin="round"/>
<path d="M50.7307 131.827C50.7307 131.827 25.7307 123.827 18.7307 123.827" stroke="#8C9590" stroke-width="3" stroke-linecap="round" stroke-linejoin="round"/>
<path d="M109.261 128.477H116.261" stroke="#8C9590" stroke-width="3" stroke-linecap="round" stroke-linejoin="round"/>
</svg>
